<svg width="98" height="99" viewBox="0 0 98 99" fill="none" xmlns="http://www.w3.org/2000/svg">
<circle cx="49" cy="49.5" r="48.75" fill="#2FB5F7" fill-opacity="0.07" stroke="#2FB5F7" stroke-width="0.5"/>
<path d="M63.7 69.1L73.0687 59.7312C73.3445 59.4558 73.4996 59.0822 73.5 58.6924V45.825C73.5 44.8504 73.1128 43.9156 72.4236 43.2264C71.7344 42.5372 70.7996 42.15 69.825 42.15C68.8503 42.15 67.9155 42.5372 67.2263 43.2264C66.5371 43.9156 66.15 44.8504 66.15 45.825V56.85" stroke="#2FB5F7" stroke-width="2" stroke-linecap="round" stroke-linejoin="round"/>
<path d="M63.7 59.3L65.8021 57.1979C65.9125 57.0876 66.0001 56.9566 66.0598 56.8124C66.1195 56.6682 66.1502 56.5137 66.15 56.3576C66.1497 56.1373 66.0881 55.9214 65.9721 55.734C65.8562 55.5467 65.6904 55.3953 65.4934 55.2967L64.408 54.7553C63.4885 54.2955 62.4477 54.1366 61.4329 54.3011C60.4181 54.4655 59.4807 54.945 58.7535 55.6716L56.5607 57.8643C55.6417 58.783 55.1253 60.0292 55.125 61.3286V69.1M34.3 69.1L24.9312 59.7312C24.6554 59.4558 24.5003 59.0822 24.5 58.6924V45.825C24.5 44.8504 24.8872 43.9156 25.5764 43.2264C26.2656 42.5372 27.2003 42.15 28.175 42.15C29.1497 42.15 30.0844 42.5372 30.7736 43.2264C31.4628 43.9156 31.85 44.8504 31.85 45.825V56.85" stroke="#2FB5F7" stroke-width="2" stroke-linecap="round" stroke-linejoin="round"/>
<path d="M34.3001 59.3L32.198 57.1979C32.0877 57.0876 32.0002 56.9565 31.9405 56.8124C31.8808 56.6682 31.8501 56.5136 31.8501 56.3576C31.8501 55.9092 32.1049 55.5001 32.5067 55.2967L33.592 54.7553C34.5116 54.2955 35.5524 54.1366 36.5672 54.3011C37.582 54.4655 38.5194 54.945 39.2466 55.6716L41.4394 57.8643C42.3584 58.783 42.8748 60.0292 42.8751 61.3286V69.1M53.0842 49.5H44.9159V43.7842H39.2001V35.6159H44.9159V29.9H53.0842V35.6159H58.8001V43.7842H53.0842V49.5Z" stroke="#2FB5F7" stroke-width="2" stroke-linecap="round" stroke-linejoin="round"/>
</svg>
