<svg width="98" height="98" viewBox="0 0 98 98" fill="none" xmlns="http://www.w3.org/2000/svg">
<circle cx="49" cy="49" r="48.75" fill="#2FB5F7" fill-opacity="0.07" stroke="#2FB5F7" stroke-width="0.5"/>
<path d="M35.9185 42.706C37.7335 42.706 39.474 41.9851 40.7574 40.7017M35.9185 42.706C34.1036 42.706 32.3631 41.9851 31.0797 40.7017M35.9185 42.706V47.8384M40.7574 40.7017C42.0407 39.4184 42.7616 37.6778 42.7616 35.8629M40.7574 40.7017L44.3857 44.3301M42.7616 35.8629C42.7616 34.048 42.0407 32.3075 40.7574 31.0241M42.7616 35.8629H47.894M40.7574 31.0241C39.474 29.7408 37.7335 29.0198 35.9185 29.0198M40.7574 31.0241L44.3857 27.3957M35.9185 29.0198C34.1036 29.0198 32.3631 29.7408 31.0797 31.0241M35.9185 29.0198V23.8875M31.0797 31.0241C29.7964 32.3075 29.0754 34.048 29.0754 35.8629M31.0797 31.0241L27.4513 27.3957M29.0754 35.8629C29.0754 37.6778 29.7964 39.4184 31.0797 40.7017M29.0754 35.8629H23.9431M31.0797 40.7017L27.4513 44.3301M34.778 23.8875H37.0591M43.5805 26.5882L45.1932 28.2009M47.894 34.7224V37.0034M45.1932 43.5249L43.5805 45.1376M37.0591 47.8384H34.778M28.2566 45.1376L26.6439 43.5249M23.9431 37.0034V34.7224M26.6439 28.2009L28.2566 26.5882M63.5168 42.0787C65.0032 43.3393 66.2099 44.8964 67.0595 46.6504C67.9091 48.4044 68.3829 50.3166 68.4505 52.2644C68.5182 54.2121 68.1782 56.1525 67.4523 57.9613C66.7264 59.77 65.6307 61.4071 64.2353 62.7677C61.5084 65.4296 57.8487 66.9197 54.0379 66.9197C50.2272 66.9197 46.5675 65.4296 43.8406 62.7677C42.2067 61.1687 40.9869 59.1958 40.2867 57.0195" stroke="#2FB5F7" stroke-width="2" stroke-linecap="round" stroke-linejoin="round"/>
<path d="M58.9661 46.5359C58.5769 46.9166 58.0541 47.1299 57.5097 47.1299C56.9652 47.1299 56.4424 46.9166 56.0532 46.5359L53.1472 43.6755C52.9561 43.4895 52.8043 43.2671 52.7006 43.0215C52.5969 42.7758 52.5435 42.5119 52.5435 42.2453C52.5435 41.9786 52.5969 41.7147 52.7006 41.4691C52.8043 41.2234 52.9561 41.001 53.1472 40.8151L61.8881 32.2292C62.2778 31.8496 62.8004 31.6371 63.3446 31.6371C63.8887 31.6371 64.4113 31.8496 64.801 32.2292L67.7139 35.0919C67.9049 35.2779 68.0568 35.5003 68.1605 35.7459C68.2642 35.9916 68.3176 36.2555 68.3176 36.5221C68.3176 36.7888 68.2642 37.0527 68.1605 37.2984C68.0568 37.544 67.9049 37.7664 67.7139 37.9524L58.9661 46.5359Z" stroke="#2FB5F7" stroke-width="2" stroke-linecap="round" stroke-linejoin="round"/>
<path d="M65.848 33.2648L71.7559 27.3524M71.7559 27.3524L68.4598 24.0563M71.7559 27.3524L75.052 30.6485M35.3483 57.0195H46.8857M37.1457 73.5H68.4598M53.6262 66.9078V73.5" stroke="#2FB5F7" stroke-width="2" stroke-linecap="round" stroke-linejoin="round"/>
</svg>
