<svg width="98" height="98" viewBox="0 0 98 98" fill="none" xmlns="http://www.w3.org/2000/svg">
<circle cx="49" cy="49" r="48.75" fill="#2FB5F7" fill-opacity="0.07" stroke="#2FB5F7" stroke-width="0.5"/>
<path d="M36.641 62.7955C35.1677 62.7955 34.0292 64.0227 34.0292 65.5227C34.0292 67.0227 35.2346 68.1818 36.641 68.1818C38.1143 68.1818 39.2528 66.9546 39.2528 65.5227C39.2528 64.0227 38.1143 62.7955 36.641 62.7955ZM36.641 66.8182C35.9043 66.8182 35.3686 66.2046 35.3686 65.5227C35.3686 64.8409 35.9713 64.1591 36.641 64.1591C37.3776 64.1591 37.9134 64.7727 37.9134 65.5227C37.9134 66.2727 37.3776 66.8182 36.641 66.8182Z" fill="#2FB5F7"/>
<path d="M69.9249 70.7045C71.6661 68.9318 71.6661 66.0682 69.9249 64.3636C68.9873 63.4091 65.3709 60.6818 62.4243 58.9773C65.0361 54.4773 64.3664 48.6818 60.6831 44.9318C57.6025 41.7955 53.1825 40.8409 49.2313 42.0682V32.25H49.6331C51.1734 32.25 52.3789 31.0909 52.3789 29.5909C52.3789 28.0909 51.1064 27 49.6331 27H36.9089C35.3686 27 34.1632 28.1591 34.1632 29.6591C34.1632 31.1591 35.3686 32.3182 36.9089 32.3182H37.3107V43.9773L27.6002 63.6818C25.725 67.5 28.4708 72 32.6898 72H53.8522C57.6695 72 60.3482 68.25 59.2767 64.5682C60.884 67.2273 62.8931 69.8864 63.6967 70.6364C65.3709 72.4091 68.1837 72.4091 69.9249 70.7045ZM35.4356 29.6591C35.4356 28.9773 36.1053 28.3636 36.8419 28.3636H49.5661C50.3698 28.3636 50.9725 28.9091 50.9725 29.6591C50.9725 30.3409 50.3028 30.9545 49.5661 30.9545H36.8419C36.1053 30.8864 35.4356 30.3409 35.4356 29.6591ZM68.9873 65.25C70.1927 66.4773 70.1927 68.4545 68.9873 69.6818C67.7818 70.9091 65.8397 70.9091 64.6343 69.6818C63.8976 68.9318 61.1519 65.3182 59.4776 62.25C59.8794 61.9091 60.2813 61.5682 60.6831 61.2273C61.0849 60.8182 61.4197 60.4091 61.6876 60C64.7012 61.7727 68.1837 64.5 68.9873 65.25ZM59.6785 45.8182C63.6297 49.8409 63.6297 56.3182 59.6785 60.2727C55.6604 64.2955 49.3652 64.2273 45.481 60.2727C41.5968 56.3182 41.4628 49.8409 45.481 45.8182C49.4322 41.7273 55.7943 41.8636 59.6785 45.8182ZM38.5832 44.3864C38.6501 44.3182 38.6501 44.1818 38.6501 44.1136V32.25H47.8919V42.4773C46.7534 43.0227 45.548 43.8409 44.5434 44.8636C41.7977 47.6591 40.5253 51.75 41.5298 55.8409C40.8601 55.7727 40.3244 55.6364 39.8556 55.3636C37.6456 53.9318 35.1677 54.2727 33.5604 54.6818L38.5832 44.3864ZM57.4685 68.5227C56.6649 69.8182 55.3255 70.6364 53.7852 70.6364H32.6898C29.4753 70.6364 27.3993 67.1591 28.8056 64.2955L32.6898 56.4545C33.4935 56.1136 36.641 54.8864 39.1189 56.5227C39.8556 57 40.7931 57.2727 41.9316 57.2727C42.4674 58.7727 43.338 60.1364 44.4765 61.2955C50.2358 67.1591 57.2676 63.6136 57.3346 63.6136C57.4016 63.75 59.0088 66.0682 57.4685 68.5227Z" fill="#2FB5F7"/>
<path d="M51.2404 51.6818H46.8204V54.4091H51.2404V58.9091H53.9192V54.4091H58.3392V51.6818H53.9192V47.1818H51.2404V51.6818Z" fill="#2FB5F7"/>
</svg>
